<?xml version="1.0" encoding="UTF-8"?>
<svg xmlns="http://www.w3.org/2000/svg" xmlns:xlink="http://www.w3.org/1999/xlink" width="222px" height="250px" viewBox="0 0 222 249" version="1.1">
<defs>
<clipPath id="clip1">
  <path d="M 70.644531 128.214844 L 151.355469 128.214844 L 151.355469 186.75 L 70.644531 186.75 Z M 70.644531 128.214844 "/>
</clipPath>
<clipPath id="clip2">
  <path d="M 86.058594 62.25 L 135.9375 62.25 L 135.9375 119.671875 L 86.058594 119.671875 Z M 86.058594 62.25 "/>
</clipPath>
</defs>
<g id="surface1">
<path style=" stroke:none;fill-rule:nonzero;fill:rgb(41.960784%,44.705882%,50.196078%);fill-opacity:1;" d="M 152.332031 28.363281 C 152.824219 28.363281 156.75 30.320312 158.957031 31.054688 C 158.222656 31.296875 156.503906 30.566406 154.542969 29.832031 C 155.03125 29.832031 156.011719 30.074219 156.996094 30.566406 C 156.503906 30.074219 152.824219 28.851562 152.332031 28.363281 M 115.785156 20.78125 C 116.519531 20.539062 125.105469 21.761719 129.03125 22.003906 C 129.273438 21.761719 128.539062 21.761719 127.558594 21.515625 C 128.785156 21.273438 131.238281 22.003906 132.953125 22.25 C 127.804688 22.496094 122.160156 21.027344 117.253906 21.515625 C 115.539062 21.515625 116.765625 21.027344 115.785156 20.78125 M 108.667969 20.78125 C 113.085938 20.78125 116.519531 20.78125 110.140625 21.273438 C 109.40625 21.027344 108.425781 21.027344 108.667969 20.78125 M 178.089844 41.082031 C 178.582031 41.082031 180.542969 43.28125 181.523438 44.015625 C 181.28125 44.261719 179.316406 42.304688 178.335938 41.570312 C 178.582031 41.816406 178.335938 41.570312 178.089844 41.082031 M 173.183594 37.902344 C 171.222656 36.191406 170.484375 36.191406 170.242188 35.210938 C 171.957031 36.191406 173.183594 37.167969 173.183594 37.902344 M 141.539062 22.496094 C 141.785156 22.25 142.277344 22.738281 143.503906 22.984375 C 142.03125 22.738281 142.277344 22.984375 142.765625 23.472656 C 141.050781 23.226562 140.558594 22.984375 141.050781 22.496094 C 142.03125 22.984375 142.277344 22.738281 141.539062 22.496094 M 71.875 25.429688 C 71.875 25.183594 72.855469 24.695312 73.589844 24.449219 C 72.855469 24.941406 73.101562 25.183594 74.328125 24.695312 C 74.328125 24.941406 72.855469 25.429688 71.875 25.917969 C 72.363281 25.671875 72.855469 24.941406 71.875 25.429688 M 146.445312 20.046875 C 145.710938 20.292969 143.011719 18.824219 140.3125 18.335938 C 138.84375 17.847656 146.199219 19.558594 146.445312 20.046875 M 1.71875 140.863281 C 3.1875 146.980469 2.207031 146.734375 1.71875 140.863281 M 1.960938 104.179688 C 2.207031 103.203125 2.453125 100.511719 2.699219 100.753906 C 1.960938 106.625 0.734375 109.316406 0.492188 113.71875 C 1.226562 109.804688 0.246094 115.917969 0 117.386719 C 0.246094 119.34375 0.246094 116.164062 0.734375 116.652344 C 1.226562 117.386719 -0.246094 127.660156 0.246094 122.03125 C -0.246094 127.167969 0.246094 132.792969 1.226562 134.261719 C 0 142.085938 6.132812 159.695312 7.359375 163.363281 C 7.605469 163.609375 7.359375 162.140625 7.851562 163.121094 C 8.339844 166.300781 10.546875 168.5 11.285156 171.925781 C 12.019531 172.902344 14.964844 178.285156 15.453125 179.507812 C 16.433594 181.464844 16.925781 181.21875 17.90625 183.175781 C 20.851562 188.800781 25.511719 194.179688 29.925781 199.316406 C 44.15625 215.945312 65.988281 229.644531 90.273438 234.535156 C 114.558594 239.671875 140.070312 236 159.9375 226.464844 C 161.164062 225.730469 160.917969 225.484375 162.390625 224.996094 C 169.257812 222.792969 177.601562 215.703125 182.261719 213.011719 C 184.46875 210.566406 190.355469 206.410156 191.089844 203.964844 C 195.261719 200.539062 199.433594 194.914062 201.640625 191.246094 C 202.867188 189.289062 203.847656 189.289062 204.339844 188.066406 C 204.09375 188.066406 208.261719 182.929688 209.488281 179.996094 C 209 179.996094 208.261719 181.464844 208.261719 179.996094 C 217.09375 163.121094 222 140.375 219.300781 124.722656 C 219.792969 144.042969 214.886719 165.566406 205.566406 179.261719 C 201.394531 188.066406 192.808594 197.605469 184.960938 204.453125 C 183.734375 205.675781 182.507812 207.140625 181.035156 208.121094 C 176.375 212.035156 171.222656 215.214844 165.824219 218.148438 C 153.070312 225.242188 138.84375 231.355469 122.160156 231.597656 C 150.863281 229.152344 176.617188 214.722656 190.847656 197.117188 C 180.054688 207.632812 175.390625 211.789062 163.371094 217.902344 C 162.390625 219.617188 154.296875 223.039062 148.898438 224.507812 C 152.089844 223.039062 158.710938 220.59375 160.917969 218.636719 C 143.011719 227.195312 123.140625 232.089844 104.5 229.398438 C 111.613281 229.398438 121.671875 229.644531 131.238281 227.929688 C 132.710938 227.441406 133.445312 226.953125 135.164062 226.707031 C 153.804688 222.550781 171.710938 213.5 184.46875 200.785156 C 177.109375 207.386719 166.070312 215.214844 158.957031 217.660156 C 165.578125 213.992188 177.601562 206.898438 181.523438 201.515625 C 173.675781 209.34375 158.957031 217.167969 149.636719 220.59375 C 148.164062 220.839844 150.617188 219.617188 148.164062 220.59375 C 145.21875 221.328125 146.445312 221.328125 145.710938 221.816406 C 134.425781 224.996094 121.425781 227.6875 110.632812 226.707031 C 108.667969 226.464844 107.933594 225.972656 106.214844 225.972656 C 104.253906 225.730469 102.535156 225.730469 100.328125 225.730469 C 91.742188 224.75 82.421875 221.328125 75.554688 218.394531 C 71.875 216.679688 68.195312 215.457031 64.515625 213.257812 C 61.570312 211.542969 59.117188 209.589844 56.664062 207.632812 C 47.34375 200.785156 39.492188 193.9375 32.136719 184.152344 C 18.886719 165.8125 12.019531 142.820312 13 120.078125 C 13.980469 97.332031 23.058594 75.078125 37.53125 58.691406 C 36.796875 59.425781 38.511719 56.976562 39.984375 55.511719 C 39.984375 56 39.738281 56.734375 41.457031 55.023438 C 42.929688 53.308594 40.964844 54.53125 41.703125 53.554688 C 56.910156 36.921875 83.402344 23.472656 110.632812 22.984375 C 111.613281 22.25 113.332031 21.273438 115.292969 21.761719 C 115.292969 22.003906 114.066406 22.003906 114.066406 22.003906 C 116.765625 21.761719 119.21875 21.761719 120.445312 22.25 C 120.6875 22.003906 119.464844 21.761719 120.445312 21.761719 C 122.160156 22.25 122.652344 21.761719 123.632812 22.25 C 122.898438 22.25 122.160156 22.25 121.671875 22.496094 C 127.804688 22.496094 131.726562 23.960938 137.859375 24.449219 C 134.671875 23.71875 133.9375 23.71875 131.484375 22.984375 C 134.179688 23.472656 135.40625 23.960938 136.632812 23.71875 C 136.144531 23.71875 136.390625 22.984375 136.878906 23.226562 C 141.785156 24.449219 142.277344 24.941406 147.425781 26.652344 C 147.917969 26.164062 145.21875 25.917969 144.484375 25.183594 C 149.390625 26.898438 153.804688 28.121094 156.75 30.074219 C 155.769531 29.34375 152.824219 28.363281 150.617188 27.386719 C 150.371094 27.628906 151.351562 27.875 151.597656 28.363281 C 149.144531 27.140625 145.710938 25.917969 142.277344 25.429688 C 145.21875 26.164062 147.183594 27.140625 148.410156 27.628906 C 145.710938 27.140625 142.277344 25.429688 138.351562 24.695312 C 144.730469 26.652344 156.75 31.054688 164.109375 34.96875 C 161.410156 33.253906 158.222656 32.03125 156.503906 31.054688 C 157.976562 31.296875 159.691406 32.277344 159.691406 31.789062 C 161.410156 32.523438 163.617188 34.234375 164.84375 34.476562 C 162.636719 33.011719 158.222656 30.808594 156.75 30.074219 C 175.148438 38.390625 191.582031 52.332031 202.128906 70.183594 C 203.113281 71.898438 204.582031 75.808594 205.808594 76.300781 C 205.566406 75.078125 204.582031 74.34375 203.601562 72.386719 C 204.09375 72.386719 204.09375 71.652344 203.601562 70.917969 C 202.621094 69.695312 203.601562 71.898438 202.621094 70.675781 C 198.207031 62.601562 192.808594 55.511719 184.46875 47.683594 C 189.128906 52.085938 185.695312 48.90625 184.714844 47.441406 C 191.089844 53.066406 198.449219 62.601562 201.640625 67.496094 C 201.148438 66.761719 200.902344 66.273438 201.148438 66.273438 C 207.035156 76.300781 210.714844 85.347656 214.394531 98.308594 C 214.640625 98.554688 214.394531 97.332031 214.886719 98.066406 C 217.339844 108.335938 218.074219 116.898438 217.828125 124.722656 C 219.792969 111.515625 215.375 90.972656 207.527344 74.832031 C 206.546875 72.875 206.546875 74.34375 205.566406 72.140625 C 205.566406 71.40625 204.828125 69.941406 204.339844 68.960938 C 194.527344 52.820312 182.507812 41.324219 168.277344 32.277344 C 169.257812 32.765625 171.222656 34.234375 171.222656 33.988281 C 144.730469 16.625 114.066406 14.179688 88.800781 19.558594 C 87.082031 20.292969 86.347656 21.027344 84.382812 22.003906 C 88.0625 20.78125 90.273438 20.539062 93.707031 19.804688 C 94.441406 19.070312 90.515625 20.046875 92.234375 19.316406 C 92.480469 19.558594 95.667969 18.824219 96.40625 19.070312 C 96.40625 19.316406 95.421875 19.558594 95.179688 19.804688 C 103.273438 18.09375 111.613281 17.847656 118.726562 18.335938 C 114.558594 18.582031 106.953125 17.847656 104.5 19.070312 C 106.953125 18.824219 110.386719 18.582031 112.59375 18.824219 C 109.652344 18.824219 104.253906 19.070312 101.800781 19.316406 C 101.554688 19.070312 105.726562 18.582031 103.027344 18.582031 C 101.800781 18.824219 99.839844 18.824219 99.101562 19.558594 C 78.007812 21.515625 57.402344 32.523438 42.929688 45.484375 C 39.984375 47.929688 36.550781 50.621094 34.34375 53.308594 C 28.945312 59.425781 25.511719 65.539062 21.585938 70.917969 C 24.039062 65.78125 29.4375 57.957031 35.8125 51.351562 C 42.191406 44.75 49.0625 39.125 52.742188 36.191406 C 52.742188 37.167969 58.628906 32.523438 60.835938 31.054688 C 59.363281 32.277344 61.816406 30.566406 62.308594 30.808594 C 70.15625 26.164062 76.535156 24.449219 83.648438 21.761719 C 81.929688 22.25 80.460938 22.738281 80.214844 22.496094 C 81.929688 22.003906 82.914062 21.515625 82.667969 21.273438 C 75.800781 23.226562 65.003906 27.875 56.417969 33.011719 C 71.875 22.496094 91.5 16.136719 110.878906 15.890625 C 130.257812 15.402344 149.144531 20.292969 164.109375 28.121094 C 174.164062 32.523438 183.734375 40.59375 191.335938 48.417969 C 193.542969 50.375 191.828125 47.929688 195.015625 51.351562 C 194.035156 50.863281 193.300781 50.375 194.527344 51.84375 C 196.488281 54.042969 194.035156 50.128906 197.222656 54.042969 C 196.980469 54.042969 195.996094 52.820312 195.996094 53.308594 C 204.582031 60.890625 211.207031 74.585938 215.132812 83.636719 C 214.148438 79.96875 211.695312 74.832031 209.734375 71.164062 C 215.621094 81.925781 217.585938 88.28125 220.039062 97.820312 C 221.019531 98.554688 219.546875 94.398438 220.527344 96.355469 C 220.773438 97.820312 221.019531 102.46875 222 103.203125 C 221.265625 98.554688 220.039062 92.929688 219.054688 91.953125 C 219.792969 92.441406 217.828125 86.328125 216.601562 84.859375 C 216.113281 80.945312 212.679688 74.097656 209.734375 68.960938 C 199.1875 48.417969 180.296875 31.542969 159.203125 22.25 C 159.203125 21.761719 157.976562 21.273438 157.484375 20.78125 C 136.632812 11.976562 111.613281 9.53125 87.574219 15.15625 C 63.289062 21.027344 40.476562 34.96875 24.285156 55.023438 C 25.019531 52.574219 31.152344 47.929688 31.398438 45.972656 C 24.285156 53.554688 16.679688 63.582031 11.527344 74.34375 C 6.132812 85.105469 3.1875 96.109375 1.960938 104.179688 "/>
<g clip-path="url(#clip1)" clip-rule="nonzero">
<path style=" stroke:none;fill-rule:nonzero;fill:rgb(100%,100%,100%);fill-opacity:1;" d="M 149.59375 140.972656 C 148.316406 140.972656 146.609375 140.042969 144.476562 138.183594 C 144.53125 138.980469 144.554688 139.804688 144.554688 140.652344 C 144.554688 144.90625 143.703125 150.089844 141.996094 156.207031 C 140.289062 162.320312 137.71875 167.957031 134.285156 173.113281 C 130.839844 178.269531 127.332031 180.847656 123.757812 180.847656 C 120.773438 180.847656 118.203125 179.679688 116.046875 177.339844 C 113.882812 175 112.238281 171.941406 111.121094 168.167969 C 109.09375 160.992188 108.082031 153.253906 108.082031 144.960938 C 104.402344 154.582031 100.882812 162.503906 97.523438 168.726562 C 91.867188 178.722656 86.429688 184.515625 81.203125 186.113281 C 79.871094 186.539062 78.671875 186.75 77.605469 186.75 C 76.539062 186.75 75.605469 186.644531 74.804688 186.429688 C 72.617188 185.6875 71.257812 184.199219 70.726562 181.964844 C 70.671875 181.699219 70.644531 181.460938 70.644531 181.246094 C 70.644531 181.035156 70.671875 180.769531 70.726562 180.449219 C 70.777344 180.128906 70.9375 180.039062 71.203125 180.179688 C 71.472656 180.304688 71.738281 180.796875 72.003906 181.644531 C 72.378906 183.082031 73.3125 183.984375 74.804688 184.359375 C 75.710938 184.625 76.589844 184.757812 77.445312 184.757812 C 78.296875 184.757812 79.125 184.625 79.921875 184.359375 C 85.042969 182.761719 90.109375 177.417969 95.121094 168.328125 C 98.589844 161.683594 102.109375 152.324219 105.679688 140.253906 C 102.746094 142.914062 99.28125 144.375 95.28125 144.640625 C 94.75 144.695312 94.472656 144.507812 94.449219 144.082031 C 94.417969 143.65625 94.722656 143.390625 95.363281 143.285156 C 97.65625 143.074219 100.027344 141.878906 102.480469 139.695312 C 104.933594 137.515625 106.773438 135.019531 108 132.199219 C 108.214844 131.507812 109.148438 131.175781 110.800781 131.195312 C 112.453125 131.226562 113.253906 131.5625 113.199219 132.199219 C 112.988281 132.785156 112.746094 134.195312 112.480469 136.425781 C 112.214844 138.660156 112.078125 140.867188 112.078125 143.046875 C 112.078125 152.402344 113.546875 161.203125 116.480469 169.445312 C 118.558594 175.238281 121.199219 178.136719 124.398438 178.136719 C 127.597656 178.136719 130.585938 175.34375 133.355469 169.761719 C 136.128906 164.179688 138.039062 158.652344 139.085938 153.175781 C 140.121094 147.699219 140.636719 143.855469 140.636719 141.644531 C 140.636719 139.441406 140.53125 137.792969 140.316406 136.699219 C 140.101562 135.613281 139.382812 133.289062 138.15625 129.726562 C 138.105469 129.570312 138.289062 129.285156 138.714844 128.882812 C 139.144531 128.488281 139.464844 128.265625 139.675781 128.214844 C 140.691406 128.214844 141.640625 128.824219 142.523438 130.046875 C 143.398438 131.269531 144.289062 132.707031 145.195312 134.355469 C 146.742188 137.332031 148.183594 138.820312 149.515625 138.820312 L 150.476562 138.582031 C 150.957031 138.582031 151.25 138.847656 151.355469 139.378906 C 151.355469 139.804688 151.167969 140.160156 150.796875 140.445312 C 150.421875 140.746094 150.023438 140.921875 149.59375 140.972656 Z M 149.59375 140.972656 "/>
</g>
<path style=" stroke:none;fill-rule:nonzero;fill:rgb(100%,100%,100%);fill-opacity:1;" d="M 99.355469 84.257812 L 99.355469 97.664062 L 111 104.367188 L 122.644531 97.664062 L 122.644531 84.257812 L 111 77.554688 Z M 117.734375 94.835938 L 111 98.714844 L 104.265625 94.835938 L 104.265625 87.082031 L 111 83.207031 L 117.734375 87.082031 Z M 117.734375 94.835938 "/>
<g clip-path="url(#clip2)" clip-rule="nonzero">
<path style=" stroke:none;fill-rule:nonzero;fill:rgb(100%,100%,100%);fill-opacity:1;" d="M 111 62.25 L 86.058594 76.605469 L 86.058594 105.316406 L 111 119.671875 L 135.941406 105.316406 L 135.941406 76.605469 Z M 130.84375 102.382812 L 111 113.808594 L 91.15625 102.382812 L 91.15625 79.535156 L 111 68.113281 L 130.84375 79.535156 Z M 130.84375 102.382812 "/>
</g>
<path style=" stroke:none;fill-rule:nonzero;fill:rgb(100%,100%,100%);fill-opacity:1;" d="M 92.730469 80.445312 L 92.730469 101.476562 L 111 111.992188 L 129.269531 101.476562 L 129.269531 80.445312 L 111 69.929688 Z M 124.222656 98.570312 L 111 106.179688 L 97.777344 98.570312 L 97.777344 83.351562 L 111 75.738281 L 124.222656 83.351562 Z M 124.222656 98.570312 "/>
</g>
</svg>
