<?xml version="1.0" encoding="UTF-8"?>
<svg xmlns="http://www.w3.org/2000/svg" xmlns:xlink="http://www.w3.org/1999/xlink" width="250px" height="281px" viewBox="0 0 250 281" version="1.1">
<defs>
<clipPath id="clip1">
  <path d="M 50 93.863281 L 200 93.863281 L 200 187.136719 L 50 187.136719 Z M 50 93.863281 "/>
</clipPath>
</defs>
<g id="surface1">
<path style=" stroke:none;fill-rule:nonzero;fill:rgb(100%,100%,100%);fill-opacity:1;" d="M 250 146.050781 C 250 110.328125 234.1875 78.246094 209.214844 56.359375 C 187.308594 31.410156 155.195312 15.609375 119.445312 15.609375 C 53.582031 15.609375 0 69.148438 0 134.949219 C 0 170.664062 15.804688 202.738281 40.769531 224.628906 C 62.679688 249.585938 94.792969 265.390625 130.554688 265.390625 C 130.789062 265.390625 131.015625 265.371094 131.25 265.371094 C 131.484375 265.371094 131.710938 265.390625 131.945312 265.390625 C 197.144531 265.390625 250 212.582031 250 147.4375 C 250 147.203125 249.984375 146.976562 249.984375 146.746094 C 249.984375 146.511719 250 146.285156 250 146.050781 Z M 46.746094 205.363281 C 34.953125 188.769531 27.9375 168.5625 27.792969 146.746094 C 28.167969 89.820312 74.273438 43.753906 131.25 43.382812 C 153.089844 43.523438 173.316406 50.53125 189.917969 62.3125 C 208.957031 80.757812 220.832031 106.523438 220.832031 134.949219 C 220.832031 190.804688 175.351562 236.25 119.445312 236.25 C 90.996094 236.25 65.203125 224.378906 46.746094 205.363281 Z M 2.777344 134.949219 C 2.777344 70.675781 55.113281 18.386719 119.445312 18.386719 C 146.828125 18.386719 172.015625 27.882812 191.945312 43.726562 C 173.992188 32.933594 152.988281 26.710938 130.554688 26.710938 C 64.695312 26.710938 11.109375 80.25 11.109375 146.050781 C 11.109375 168.457031 17.335938 189.4375 28.128906 207.371094 C 12.28125 187.46875 2.777344 162.300781 2.777344 134.949219 Z M 130.554688 248.738281 C 102.554688 248.738281 77.148438 237.484375 58.597656 219.277344 C 75.746094 231.679688 96.773438 239.023438 119.445312 239.023438 C 176.882812 239.023438 223.609375 192.335938 223.609375 134.949219 C 223.609375 112.296875 216.261719 91.292969 203.847656 74.15625 C 222.070312 92.6875 233.332031 118.074219 233.332031 146.050781 C 233.332031 202.671875 187.226562 248.738281 130.554688 248.738281 Z M 130.554688 248.738281 "/>
<g clip-path="url(#clip1)" clip-rule="nonzero">
<path style=" stroke:none;fill-rule:nonzero;fill:rgb(100%,100%,100%);fill-opacity:1;" d="M 87.414062 131.507812 C 87.414062 127.761719 85.449219 125.890625 81.527344 125.890625 C 81.058594 125.890625 80.550781 125.917969 80 125.976562 C 79.4375 126.035156 79.082031 125.960938 78.929688 125.75 C 78.789062 125.550781 78.835938 125.335938 79.070312 125.101562 C 79.597656 124.398438 81.339844 124.046875 84.304688 124.046875 C 87.253906 124.046875 89.199219 125.335938 90.132812 127.910156 C 90.542969 128.902344 90.75 129.957031 90.75 131.066406 C 90.75 133.582031 89.8125 136.449219 87.9375 139.667969 C 84.777344 144.929688 80.414062 148.675781 74.855469 150.898438 C 71.984375 152.066406 68.8125 152.652344 65.332031 152.652344 C 61.84375 152.652344 58.683594 151.464844 55.847656 149.089844 C 53.003906 146.726562 51.140625 143.382812 50.261719 139.050781 C 50.085938 137.941406 50 136.742188 50 135.453125 C 50 131.945312 50.9375 127.863281 52.808594 123.207031 C 54.683594 118.5625 57.816406 114.105469 62.207031 109.832031 C 70.519531 101.644531 79.304688 96.585938 88.554688 94.652344 C 91.128906 94.128906 93.382812 93.863281 95.316406 93.863281 C 97.25 93.863281 98.886719 93.953125 100.234375 94.128906 C 103.863281 94.652344 106.703125 96.378906 108.753906 99.304688 C 110.390625 101.585938 111.210938 104.480469 111.210938 107.992188 C 111.210938 111.148438 110.859375 113.792969 110.15625 115.921875 C 109.457031 118.0625 108.988281 119.46875 108.753906 120.132812 C 108.519531 120.8125 108.097656 121.855469 107.488281 123.257812 C 106.867188 124.664062 106.46875 125.570312 106.292969 125.976562 C 106.117188 126.386719 105.648438 127.441406 104.890625 129.136719 C 102.429688 134.460938 101.257812 137.152344 101.375 137.210938 L 104.097656 132.824219 C 107.667969 127.324219 111.535156 122.058594 115.691406 117.027344 C 123.417969 107.667969 130.355469 101.585938 136.503906 98.777344 C 139.960938 97.140625 142.972656 96.320312 145.550781 96.320312 C 148.125 96.320312 150.28125 96.945312 152.015625 98.199219 C 153.734375 99.460938 154.597656 101.613281 154.597656 104.65625 C 154.597656 107.699219 153.628906 111.394531 151.699219 115.746094 C 149.765625 120.109375 146.945312 125.6875 143.230469 132.472656 C 139.507812 139.257812 136.359375 145.429688 133.78125 150.984375 C 131.207031 156.542969 129.917969 161.484375 129.917969 165.8125 C 129.917969 167.335938 130.121094 168.710938 130.53125 169.9375 C 131.351562 172.628906 132.933594 173.972656 135.273438 173.972656 C 136.5625 173.972656 137.898438 173.652344 139.28125 173.007812 C 140.648438 172.367188 141.6875 172.042969 142.390625 172.042969 C 143.089844 172.042969 143.441406 172.425781 143.441406 173.183594 C 143.441406 173.945312 142.886719 174.636719 141.773438 175.253906 C 140.660156 175.863281 139.753906 176.167969 139.050781 176.167969 C 129.683594 176.167969 125 172.101562 125 163.972656 C 125 160.988281 125.515625 157.976562 126.546875 154.933594 C 127.5625 151.890625 131.207031 143.789062 137.472656 130.628906 C 143.734375 117.46875 147.132812 109.160156 147.65625 105.710938 C 147.773438 105.183594 147.832031 104.6875 147.832031 104.21875 C 147.832031 101.761719 146.398438 100.53125 143.53125 100.53125 C 141.597656 100.53125 139.402344 101.175781 136.945312 102.464844 C 127.75 106.851562 119 115.246094 110.683594 127.644531 C 105.765625 134.957031 100.175781 145.339844 93.910156 158.792969 C 91.628906 163.707031 90.425781 166.28125 90.308594 166.515625 C 89.492188 168.210938 87.851562 169.0625 85.390625 169.0625 C 83.929688 169.0625 83.136719 168.59375 83.019531 167.65625 C 82.960938 167.480469 82.960938 167.277344 83.019531 167.042969 C 85.832031 162.890625 89.773438 155.207031 94.84375 144 C 99.902344 132.804688 103.367188 123.054688 105.238281 114.746094 C 105.824219 111.996094 106.117188 109.550781 106.117188 107.410156 C 106.117188 105.28125 105.824219 103.457031 105.238281 101.9375 C 104.011719 98.835938 101.933594 97.050781 99.003906 96.585938 C 98.125 96.46875 96.898438 96.410156 95.316406 96.410156 C 93.734375 96.410156 91.382812 96.859375 88.253906 97.761719 C 85.117188 98.671875 81.585938 100.355469 77.664062 102.8125 C 68.824219 108.3125 62.414062 115.476562 58.429688 124.3125 C 56.265625 129.109375 55.179688 133.523438 55.179688 137.5625 C 55.179688 139.609375 55.445312 141.539062 55.972656 143.351562 C 57.902344 148.207031 61.300781 150.75 66.160156 150.984375 C 72.191406 150.984375 77.460938 148.46875 81.96875 143.4375 C 85.597656 139.402344 87.414062 135.425781 87.414062 131.507812 Z M 172.863281 139.492188 C 172.863281 142.066406 172.191406 144.902344 170.84375 148.003906 C 169.496094 151.101562 167.632812 154.085938 165.257812 156.953125 C 162.890625 159.816406 160.011719 161.777344 156.617188 162.832031 C 155.328125 163.183594 153.847656 163.355469 152.171875 163.355469 C 150.507812 163.355469 148.683594 162.832031 146.691406 161.777344 L 138.347656 182.574219 C 137.472656 184.445312 136.652344 185.671875 135.890625 186.257812 C 135.128906 186.84375 134.398438 187.136719 133.695312 187.136719 C 132.992188 187.136719 132.5625 187.136719 132.414062 187.136719 C 132.273438 187.136719 131.746094 187.046875 130.832031 186.871094 C 129.929688 186.695312 129.246094 186.640625 128.777344 186.695312 C 130.0625 185.46875 133.324219 179.636719 138.558594 169.199219 C 143.804688 158.753906 146.78125 151.714844 147.484375 148.089844 C 146.839844 149.027344 146.222656 149.523438 145.636719 149.582031 C 145.285156 149.582031 145.285156 149.242188 145.636719 148.5625 C 145.988281 147.898438 146.574219 146.597656 147.394531 144.667969 C 148.449219 142.152344 148.976562 139.824219 148.976562 137.683594 C 148.976562 135.554688 148.566406 134.3125 147.746094 133.964844 C 151.257812 133.378906 153.308594 133.097656 153.894531 133.121094 C 154.480469 133.15625 154.84375 133.40625 154.984375 133.875 C 155.132812 134.34375 155.210938 134.871094 155.210938 135.453125 C 155.210938 139.023438 154.390625 143 152.75 147.386719 L 154.507812 144.582031 C 156.617188 141.1875 158.148438 138.992188 159.109375 138 C 160.082031 137.003906 161.125 135.980469 162.238281 134.929688 C 163.933594 133.289062 165.574219 132.472656 167.15625 132.472656 C 167.621094 132.472656 168.0625 132.53125 168.472656 132.648438 C 171.398438 133.40625 172.863281 135.6875 172.863281 139.492188 Z M 168.648438 138.613281 C 168.648438 137.675781 168.453125 136.8125 168.066406 136.015625 C 167.691406 135.234375 167.097656 134.839844 166.277344 134.839844 C 164.226562 134.839844 161.839844 136.742188 159.109375 140.542969 C 156.394531 144.347656 152.488281 150.984375 147.394531 160.460938 C 148.15625 161.222656 149.210938 161.601562 150.554688 161.601562 C 151.902344 161.601562 153.804688 160.578125 156.265625 158.53125 C 160.1875 155.253906 163.464844 151.191406 166.101562 146.335938 C 167.796875 143.175781 168.648438 140.601562 168.648438 138.613281 Z M 183.472656 161.691406 C 184.246094 161.808594 184.777344 161.867188 185.070312 161.867188 C 187.414062 161.867188 189.726562 160.492188 192.007812 157.742188 C 193.238281 156.222656 195.433594 152.390625 198.59375 146.246094 C 198.710938 145.953125 198.917969 145.808594 199.210938 145.808594 C 199.738281 145.75 200 145.953125 200 146.421875 C 200 146.539062 199.867188 146.875 199.597656 147.421875 C 199.339844 147.984375 199.085938 148.539062 198.839844 149.089844 C 198.617188 149.652344 198.242188 150.457031 197.714844 151.511719 C 197.191406 152.566406 196.734375 153.414062 196.347656 154.054688 C 195.960938 154.699219 195.472656 155.488281 194.890625 156.425781 C 194.304688 157.363281 193.71875 158.09375 193.132812 158.617188 L 191.304688 160.550781 C 190.308594 161.542969 189.140625 162.246094 187.792969 162.65625 C 185.625 163.355469 183.519531 163.414062 181.46875 162.832031 C 180.121094 163.414062 178.921875 163.707031 177.867188 163.707031 C 173.699219 163.707031 171.175781 162.070312 170.296875 158.792969 C 170.132812 158.035156 170.050781 157.117188 170.050781 156.039062 C 170.050781 154.953125 170.414062 153.910156 171.140625 152.914062 C 171.878906 151.921875 172.65625 151.394531 173.476562 151.335938 C 176.464844 145.664062 179.011719 140.542969 181.117188 135.980469 C 183.460938 131.007812 186.183594 128.523438 189.285156 128.523438 C 190.09375 128.523438 190.894531 128.710938 191.691406 129.085938 C 192.488281 129.46875 192.78125 129.898438 192.570312 130.367188 C 192.359375 130.832031 191.9375 130.921875 191.304688 130.628906 C 190.660156 130.335938 190.097656 130.191406 189.621094 130.191406 C 189.164062 130.191406 188.757812 130.277344 188.40625 130.453125 C 186.417969 131.390625 185.421875 133.40625 185.421875 136.507812 C 185.421875 138.144531 185.648438 139.492188 186.105469 140.542969 C 186.585938 141.597656 187.121094 142.738281 187.703125 143.964844 C 189.050781 147.007812 189.726562 149.492188 189.726562 151.425781 C 189.726562 153.355469 189.105469 155.253906 187.863281 157.128906 C 186.644531 159 185.179688 160.519531 183.472656 161.691406 Z M 180.503906 161.074219 C 183.066406 159.085938 184.351562 155.871094 184.351562 151.425781 C 184.351562 149.609375 184.152344 147.125 183.753906 143.964844 C 183.34375 140.808594 183.136719 138.671875 183.136719 137.5625 C 183.136719 136.449219 183.167969 135.6875 183.226562 135.277344 C 178.777344 144.171875 176.023438 149.582031 174.972656 151.511719 C 176.199219 151.511719 176.816406 152.390625 176.816406 154.144531 C 176.816406 157.59375 178.042969 159.90625 180.503906 161.074219 Z M 173.917969 158.707031 C 173.917969 159.058594 173.945312 159.4375 174.003906 159.847656 C 174.460938 161.425781 175.542969 162.214844 177.253906 162.214844 C 177.957031 162.214844 178.542969 162.101562 179.011719 161.867188 C 176.84375 160.519531 175.671875 158.328125 175.496094 155.285156 C 174.445312 156.335938 173.917969 157.476562 173.917969 158.707031 Z M 173.917969 158.707031 "/>
</g>
</g>
</svg>
