<?xml version="1.0" encoding="UTF-8"?>
<svg xmlns="http://www.w3.org/2000/svg" xmlns:xlink="http://www.w3.org/1999/xlink" width="px" height="0px" viewBox="0 0 104 117" version="1.1">
<defs>
<clipPath id="clip1">
  <path d="M 33.09375 60.246094 L 70.902344 60.246094 L 70.902344 87.75 L 33.09375 87.75 Z M 33.09375 60.246094 "/>
</clipPath>
<clipPath id="clip2">
  <path d="M 40.316406 29.25 L 63.683594 29.25 L 63.683594 56.230469 L 40.316406 56.230469 Z M 40.316406 29.25 "/>
</clipPath>
</defs>
<g id="surface1">
<path style=" stroke:none;fill-rule:nonzero;fill:rgb(41.960784%,44.705882%,50.196078%);fill-opacity:1;" d="M 71.363281 13.328125 C 71.59375 13.328125 73.433594 14.246094 74.464844 14.589844 C 74.121094 14.707031 73.316406 14.363281 72.398438 14.015625 C 72.628906 14.015625 73.085938 14.132812 73.546875 14.363281 C 73.316406 14.132812 71.59375 13.558594 71.363281 13.328125 M 54.242188 9.765625 C 54.585938 9.648438 58.609375 10.226562 60.445312 10.339844 C 60.5625 10.226562 60.214844 10.226562 59.757812 10.109375 C 60.332031 9.996094 61.480469 10.339844 62.285156 10.453125 C 59.871094 10.570312 57.230469 9.878906 54.929688 10.109375 C 54.125 10.109375 54.699219 9.878906 54.242188 9.765625 M 50.910156 9.765625 C 52.976562 9.765625 54.585938 9.765625 51.597656 9.996094 C 51.253906 9.878906 50.792969 9.878906 50.910156 9.765625 M 83.429688 19.304688 C 83.660156 19.304688 84.578125 20.335938 85.039062 20.683594 C 84.921875 20.796875 84.003906 19.878906 83.542969 19.53125 C 83.660156 19.648438 83.542969 19.53125 83.429688 19.304688 M 81.132812 17.808594 C 80.210938 17.003906 79.867188 17.003906 79.753906 16.546875 C 80.558594 17.003906 81.132812 17.464844 81.132812 17.808594 M 66.308594 10.570312 C 66.421875 10.453125 66.652344 10.683594 67.226562 10.800781 C 66.535156 10.683594 66.652344 10.800781 66.882812 11.03125 C 66.078125 10.914062 65.847656 10.800781 66.078125 10.570312 C 66.535156 10.800781 66.652344 10.683594 66.308594 10.570312 M 33.671875 11.949219 C 33.671875 11.832031 34.128906 11.605469 34.476562 11.488281 C 34.128906 11.71875 34.246094 11.832031 34.820312 11.605469 C 34.820312 11.71875 34.128906 11.949219 33.671875 12.179688 C 33.902344 12.0625 34.128906 11.71875 33.671875 11.949219 M 68.605469 9.421875 C 68.261719 9.535156 66.996094 8.847656 65.734375 8.617188 C 65.042969 8.386719 68.492188 9.191406 68.605469 9.421875 M 0.804688 66.191406 C 1.492188 69.0625 1.035156 68.949219 0.804688 66.191406 M 0.917969 48.953125 C 1.035156 48.492188 1.148438 47.226562 1.265625 47.34375 C 0.917969 50.101562 0.34375 51.363281 0.230469 53.433594 C 0.574219 51.59375 0.113281 54.46875 0 55.15625 C 0.113281 56.078125 0.113281 54.582031 0.34375 54.8125 C 0.574219 55.15625 -0.113281 59.984375 0.113281 57.339844 C -0.113281 59.753906 0.113281 62.398438 0.574219 63.085938 C 0 66.765625 2.871094 75.039062 3.449219 76.761719 C 3.5625 76.875 3.449219 76.1875 3.675781 76.648438 C 3.90625 78.140625 4.941406 79.175781 5.285156 80.785156 C 5.632812 81.242188 7.011719 83.773438 7.238281 84.347656 C 7.699219 85.265625 7.929688 85.152344 8.390625 86.070312 C 9.769531 88.714844 11.953125 91.242188 14.019531 93.65625 C 20.683594 101.46875 30.914062 107.90625 42.289062 110.203125 C 53.667969 112.617188 65.617188 110.890625 74.925781 106.410156 C 75.5 106.066406 75.386719 105.949219 76.074219 105.722656 C 79.292969 104.6875 83.199219 101.355469 85.382812 100.089844 C 86.417969 98.941406 89.175781 96.988281 89.519531 95.839844 C 91.472656 94.230469 93.425781 91.585938 94.460938 89.863281 C 95.035156 88.941406 95.496094 88.941406 95.726562 88.367188 C 95.609375 88.367188 97.566406 85.957031 98.140625 84.578125 C 97.910156 84.578125 97.566406 85.265625 97.566406 84.578125 C 101.703125 76.648438 104 65.960938 102.734375 58.605469 C 102.964844 67.683594 100.667969 77.796875 96.300781 84.230469 C 94.347656 88.367188 90.324219 92.851562 86.648438 96.066406 C 86.074219 96.640625 85.5 97.332031 84.808594 97.792969 C 82.625 99.628906 80.210938 101.125 77.683594 102.503906 C 71.707031 105.835938 65.042969 108.707031 57.230469 108.824219 C 70.675781 107.675781 82.742188 100.894531 89.40625 92.621094 C 84.347656 97.5625 82.164062 99.515625 76.535156 102.386719 C 76.074219 103.191406 72.28125 104.800781 69.753906 105.492188 C 71.25 104.800781 74.351562 103.652344 75.386719 102.734375 C 66.996094 106.753906 57.6875 109.054688 48.953125 107.789062 C 52.289062 107.789062 57 107.90625 61.480469 107.101562 C 62.171875 106.871094 62.515625 106.640625 63.320312 106.527344 C 72.054688 104.570312 80.441406 100.320312 86.417969 94.34375 C 82.96875 97.445312 77.800781 101.125 74.464844 102.273438 C 77.570312 100.550781 83.199219 97.21875 85.039062 94.6875 C 81.359375 98.367188 74.464844 102.042969 70.097656 103.652344 C 69.410156 103.765625 70.558594 103.191406 69.410156 103.652344 C 68.03125 103.996094 68.605469 103.996094 68.261719 104.226562 C 62.972656 105.722656 56.882812 106.984375 51.828125 106.527344 C 50.910156 106.410156 50.5625 106.179688 49.757812 106.179688 C 48.839844 106.066406 48.035156 106.066406 47 106.066406 C 42.980469 105.605469 38.613281 103.996094 35.394531 102.617188 C 33.671875 101.8125 31.945312 101.238281 30.222656 100.203125 C 28.84375 99.402344 27.695312 98.480469 26.546875 97.5625 C 22.179688 94.34375 18.5 91.125 15.054688 86.53125 C 8.847656 77.910156 5.632812 67.109375 6.089844 56.421875 C 6.550781 45.734375 10.800781 35.277344 17.582031 27.578125 C 17.238281 27.921875 18.042969 26.773438 18.730469 26.082031 C 18.730469 26.3125 18.617188 26.65625 19.421875 25.855469 C 20.109375 25.050781 19.191406 25.625 19.535156 25.164062 C 26.660156 17.351562 39.070312 11.03125 51.828125 10.800781 C 52.289062 10.453125 53.089844 9.996094 54.011719 10.226562 C 54.011719 10.339844 53.4375 10.339844 53.4375 10.339844 C 54.699219 10.226562 55.851562 10.226562 56.425781 10.453125 C 56.539062 10.339844 55.964844 10.226562 56.425781 10.226562 C 57.230469 10.453125 57.457031 10.226562 57.917969 10.453125 C 57.574219 10.453125 57.230469 10.453125 57 10.570312 C 59.871094 10.570312 61.710938 11.257812 64.582031 11.488281 C 63.089844 11.144531 62.746094 11.144531 61.59375 10.800781 C 62.859375 11.03125 63.433594 11.257812 64.007812 11.144531 C 63.777344 11.144531 63.894531 10.800781 64.125 10.914062 C 66.421875 11.488281 66.652344 11.71875 69.066406 12.523438 C 69.296875 12.292969 68.03125 12.179688 67.6875 11.832031 C 69.984375 12.636719 72.054688 13.210938 73.433594 14.132812 C 72.972656 13.789062 71.59375 13.328125 70.558594 12.867188 C 70.445312 12.984375 70.902344 13.097656 71.019531 13.328125 C 69.871094 12.753906 68.261719 12.179688 66.652344 11.949219 C 68.03125 12.292969 68.949219 12.753906 69.523438 12.984375 C 68.261719 12.753906 66.652344 11.949219 64.8125 11.605469 C 67.800781 12.523438 73.433594 14.589844 76.878906 16.429688 C 75.617188 15.625 74.121094 15.050781 73.316406 14.589844 C 74.007812 14.707031 74.8125 15.167969 74.8125 14.9375 C 75.617188 15.28125 76.648438 16.085938 77.222656 16.199219 C 76.191406 15.511719 74.121094 14.476562 73.433594 14.132812 C 82.050781 18.039062 89.75 24.589844 94.691406 32.976562 C 95.152344 33.78125 95.839844 35.621094 96.414062 35.851562 C 96.300781 35.277344 95.839844 34.933594 95.382812 34.011719 C 95.609375 34.011719 95.609375 33.667969 95.382812 33.324219 C 94.921875 32.75 95.382812 33.78125 94.921875 33.207031 C 92.851562 29.417969 90.324219 26.082031 86.417969 22.40625 C 88.601562 24.472656 86.992188 22.980469 86.53125 22.292969 C 89.519531 24.933594 92.96875 29.417969 94.460938 31.714844 C 94.230469 31.371094 94.117188 31.140625 94.230469 31.140625 C 96.988281 35.851562 98.714844 40.101562 100.4375 46.195312 C 100.550781 46.308594 100.4375 45.734375 100.667969 46.078125 C 101.816406 50.90625 102.160156 54.925781 102.046875 58.605469 C 102.964844 52.398438 100.898438 42.746094 97.21875 35.160156 C 96.761719 34.242188 96.761719 34.933594 96.300781 33.898438 C 96.300781 33.554688 95.957031 32.863281 95.726562 32.402344 C 91.128906 24.820312 85.5 19.417969 78.832031 15.167969 C 79.292969 15.394531 80.210938 16.085938 80.210938 15.972656 C 67.800781 7.8125 53.4375 6.664062 41.601562 9.191406 C 40.796875 9.535156 40.449219 9.878906 39.53125 10.339844 C 41.253906 9.765625 42.289062 9.648438 43.898438 9.304688 C 44.242188 8.960938 42.40625 9.421875 43.207031 9.074219 C 43.324219 9.191406 44.816406 8.847656 45.164062 8.960938 C 45.164062 9.074219 44.703125 9.191406 44.585938 9.304688 C 48.378906 8.5 52.289062 8.386719 55.621094 8.617188 C 53.667969 8.730469 50.105469 8.386719 48.953125 8.960938 C 50.105469 8.847656 51.710938 8.730469 52.746094 8.847656 C 51.367188 8.847656 48.839844 8.960938 47.691406 9.074219 C 47.574219 8.960938 49.527344 8.730469 48.265625 8.730469 C 47.691406 8.847656 46.769531 8.847656 46.425781 9.191406 C 36.542969 10.109375 26.890625 15.28125 20.109375 21.371094 C 18.730469 22.519531 17.121094 23.785156 16.089844 25.050781 C 13.558594 27.921875 11.953125 30.796875 10.113281 33.324219 C 11.261719 30.910156 13.789062 27.234375 16.777344 24.128906 C 19.765625 21.027344 22.984375 18.382812 24.707031 17.003906 C 24.707031 17.464844 27.464844 15.28125 28.5 14.589844 C 27.808594 15.167969 28.960938 14.363281 29.1875 14.476562 C 32.867188 12.292969 35.855469 11.488281 39.1875 10.226562 C 38.382812 10.453125 37.691406 10.683594 37.578125 10.570312 C 38.382812 10.339844 38.84375 10.109375 38.726562 9.996094 C 35.507812 10.914062 30.453125 13.097656 26.429688 15.511719 C 33.671875 10.570312 42.863281 7.582031 51.941406 7.46875 C 61.019531 7.238281 69.871094 9.535156 76.878906 13.210938 C 81.589844 15.28125 86.074219 19.074219 89.636719 22.75 C 90.667969 23.671875 89.863281 22.519531 91.359375 24.128906 C 90.898438 23.898438 90.554688 23.671875 91.128906 24.359375 C 92.046875 25.394531 90.898438 23.554688 92.394531 25.394531 C 92.277344 25.394531 91.820312 24.820312 91.820312 25.050781 C 95.839844 28.613281 98.945312 35.046875 100.78125 39.300781 C 100.324219 37.574219 99.171875 35.160156 98.253906 33.4375 C 101.011719 38.496094 101.929688 41.480469 103.082031 45.964844 C 103.539062 46.308594 102.851562 44.355469 103.308594 45.273438 C 103.425781 45.964844 103.539062 48.148438 104 48.492188 C 103.65625 46.308594 103.082031 43.664062 102.621094 43.207031 C 102.964844 43.4375 102.046875 40.5625 101.472656 39.875 C 101.242188 38.035156 99.632812 34.816406 98.253906 32.402344 C 93.3125 22.75 84.464844 14.820312 74.582031 10.453125 C 74.582031 10.226562 74.007812 9.996094 73.777344 9.765625 C 64.007812 5.628906 52.289062 4.480469 41.027344 7.121094 C 29.648438 9.878906 18.960938 16.429688 11.375 25.855469 C 11.722656 24.703125 14.59375 22.519531 14.710938 21.601562 C 11.375 25.164062 7.8125 29.875 5.402344 34.933594 C 2.871094 39.988281 1.492188 45.160156 0.917969 48.953125 "/>
<g clip-path="url(#clip1)" clip-rule="nonzero">
<path style=" stroke:none;fill-rule:nonzero;fill:rgb(6.666667%,6.666667%,6.666667%);fill-opacity:1;" d="M 70.082031 66.242188 C 69.480469 66.242188 68.683594 65.804688 67.683594 64.929688 C 67.707031 65.304688 67.71875 65.691406 67.71875 66.089844 C 67.71875 68.089844 67.320312 70.523438 66.519531 73.398438 C 65.722656 76.269531 64.515625 78.917969 62.910156 81.34375 C 61.292969 83.765625 59.652344 84.976562 57.976562 84.976562 C 56.578125 84.976562 55.375 84.425781 54.363281 83.328125 C 53.351562 82.230469 52.582031 80.792969 52.054688 79.019531 C 51.105469 75.644531 50.632812 72.011719 50.632812 68.113281 C 48.910156 72.636719 47.257812 76.359375 45.6875 79.28125 C 43.039062 83.976562 40.488281 86.699219 38.042969 87.449219 C 37.417969 87.648438 36.855469 87.75 36.355469 87.75 C 35.855469 87.75 35.417969 87.699219 35.042969 87.601562 C 34.019531 87.25 33.382812 86.550781 33.132812 85.5 C 33.105469 85.375 33.09375 85.265625 33.09375 85.164062 C 33.09375 85.0625 33.105469 84.941406 33.132812 84.789062 C 33.15625 84.640625 33.230469 84.597656 33.355469 84.664062 C 33.480469 84.722656 33.605469 84.953125 33.730469 85.351562 C 33.90625 86.027344 34.34375 86.449219 35.042969 86.625 C 35.46875 86.75 35.878906 86.8125 36.28125 86.8125 C 36.679688 86.8125 37.066406 86.75 37.441406 86.625 C 39.839844 85.875 42.214844 83.367188 44.5625 79.09375 C 46.183594 75.972656 47.835938 71.574219 49.507812 65.902344 C 48.132812 67.152344 46.511719 67.839844 44.636719 67.964844 C 44.386719 67.988281 44.257812 67.902344 44.246094 67.703125 C 44.230469 67.503906 44.375 67.378906 44.675781 67.328125 C 45.75 67.226562 46.859375 66.664062 48.007812 65.640625 C 49.160156 64.617188 50.019531 63.441406 50.59375 62.117188 C 50.695312 61.792969 51.132812 61.636719 51.90625 61.644531 C 52.679688 61.660156 53.054688 61.820312 53.03125 62.117188 C 52.929688 62.394531 52.816406 63.054688 52.691406 64.105469 C 52.566406 65.152344 52.507812 66.191406 52.507812 67.214844 C 52.507812 71.613281 53.191406 75.746094 54.566406 79.617188 C 55.542969 82.339844 56.777344 83.703125 58.277344 83.703125 C 59.777344 83.703125 61.175781 82.390625 62.472656 79.769531 C 63.773438 77.144531 64.667969 74.546875 65.15625 71.972656 C 65.640625 69.402344 65.882812 67.59375 65.882812 66.554688 C 65.882812 65.519531 65.832031 64.746094 65.734375 64.230469 C 65.632812 63.722656 65.296875 62.628906 64.722656 60.957031 C 64.695312 60.882812 64.785156 60.75 64.984375 60.558594 C 65.183594 60.375 65.335938 60.269531 65.433594 60.246094 C 65.910156 60.246094 66.351562 60.53125 66.769531 61.105469 C 67.179688 61.679688 67.59375 62.355469 68.019531 63.128906 C 68.746094 64.527344 69.417969 65.230469 70.042969 65.230469 L 70.492188 65.117188 C 70.71875 65.117188 70.855469 65.242188 70.90625 65.492188 C 70.90625 65.691406 70.816406 65.859375 70.644531 65.992188 C 70.46875 66.132812 70.28125 66.214844 70.082031 66.242188 Z M 70.082031 66.242188 "/>
</g>
<path style=" stroke:none;fill-rule:nonzero;fill:rgb(6.666667%,6.666667%,6.666667%);fill-opacity:1;" d="M 46.542969 39.589844 L 46.542969 45.890625 L 52 49.039062 L 57.457031 45.890625 L 57.457031 39.589844 L 52 36.441406 Z M 55.15625 44.5625 L 52 46.382812 L 48.84375 44.5625 L 48.84375 40.917969 L 52 39.097656 L 55.15625 40.917969 Z M 55.15625 44.5625 "/>
<g clip-path="url(#clip2)" clip-rule="nonzero">
<path style=" stroke:none;fill-rule:nonzero;fill:rgb(6.666667%,6.666667%,6.666667%);fill-opacity:1;" d="M 52 29.25 L 40.316406 35.996094 L 40.316406 49.484375 L 52 56.230469 L 63.683594 49.484375 L 63.683594 35.996094 Z M 61.296875 48.109375 L 52 53.476562 L 42.703125 48.109375 L 42.703125 37.371094 L 52 32.003906 L 61.296875 37.371094 Z M 61.296875 48.109375 "/>
</g>
<path style=" stroke:none;fill-rule:nonzero;fill:rgb(6.666667%,6.666667%,6.666667%);fill-opacity:1;" d="M 43.441406 37.800781 L 43.441406 47.679688 L 52 52.621094 L 60.558594 47.679688 L 60.558594 37.800781 L 52 32.859375 Z M 58.195312 46.316406 L 52 49.890625 L 45.804688 46.316406 L 45.804688 39.164062 L 52 35.589844 L 58.195312 39.164062 Z M 58.195312 46.316406 "/>
</g>
</svg>
